<svg width="63" height="30" viewBox="0 0 63 30" fill="none" xmlns="http://www.w3.org/2000/svg">
<path d="M7.24805 23.9631V5.70361" stroke="black" stroke-width="3" stroke-linecap="round" stroke-linejoin="round"/>
<path d="M7.248 14.8335H1.5" stroke="black" stroke-width="3" stroke-linecap="round" stroke-linejoin="round"/>
<path d="M55.752 23.9631V5.70361" stroke="black" stroke-width="3" stroke-linecap="round" stroke-linejoin="round"/>
<path d="M55.752 14.8335H61.5" stroke="black" stroke-width="3" stroke-linecap="round" stroke-linejoin="round"/>
<path d="M45.1021 14.8335H17.8981" stroke="black" stroke-width="3" stroke-linecap="round" stroke-linejoin="round"/>
<path d="M47.8441 28.1665H47.8501C49.3678 28.1665 50.5981 26.9906 50.5981 25.54V4.12636C50.5981 2.67577 49.3678 1.49984 47.8501 1.49984H47.8441C46.3265 1.49984 45.0961 2.67577 45.0961 4.12636V25.54C45.0961 26.9906 46.3265 28.1665 47.8441 28.1665Z" stroke="black" stroke-width="3" stroke-linecap="round" stroke-linejoin="round"/>
<path d="M15.156 1.5H15.15C13.6323 1.5 12.402 2.67593 12.402 4.12652V25.5401C12.402 26.9907 13.6323 28.1667 15.15 28.1667H15.156C16.6737 28.1667 17.904 26.9907 17.904 25.5401V4.12652C17.904 2.67593 16.6737 1.5 15.156 1.5Z" stroke="black" stroke-width="3" stroke-linecap="round" stroke-linejoin="round"/>
</svg>
