<svg width="25" height="24" viewBox="0 0 25 24" fill="none" xmlns="http://www.w3.org/2000/svg">
<rect x="0.036377" width="24" height="24" rx="2" fill="white"/>
<path d="M9.81521 12.0002C9.81521 10.7939 10.7934 9.81572 12.0005 9.81572C13.2075 9.81572 14.1863 10.7939 14.1863 12.0002C14.1863 13.2065 13.2075 14.1847 12.0005 14.1847C10.7934 14.1847 9.81521 13.2065 9.81521 12.0002ZM8.63361 12.0002C8.63361 13.8586 10.141 15.3651 12.0005 15.3651C13.86 15.3651 15.3674 13.8586 15.3674 12.0002C15.3674 10.1418 13.86 8.63535 12.0005 8.63535C10.141 8.63535 8.63361 10.1418 8.63361 12.0002ZM14.7138 8.50194C14.7138 8.65746 14.7599 8.80951 14.8463 8.93886C14.9327 9.06821 15.0555 9.16905 15.1993 9.22863C15.343 9.2882 15.5012 9.30384 15.6538 9.27356C15.8065 9.24328 15.9467 9.16844 16.0568 9.05851C16.1669 8.94858 16.2419 8.8085 16.2723 8.65597C16.3027 8.50344 16.2872 8.34533 16.2277 8.20162C16.1682 8.05791 16.0674 7.93505 15.9381 7.8486C15.8087 7.76214 15.6566 7.71596 15.501 7.7159H15.5007C15.2921 7.71599 15.092 7.79883 14.9445 7.94621C14.797 8.09359 14.714 8.29347 14.7138 8.50194V8.50194ZM9.35151 17.3342C8.71224 17.3051 8.36477 17.1986 8.13387 17.1087C7.82774 16.9896 7.60932 16.8478 7.37967 16.6186C7.15002 16.3894 7.00787 16.1713 6.88921 15.8654C6.7992 15.6347 6.69272 15.2873 6.66366 14.6484C6.63187 13.9577 6.62552 13.7502 6.62552 12.0003C6.62552 10.2503 6.63239 10.0434 6.66366 9.35209C6.69277 8.7132 6.80004 8.36653 6.88921 8.13518C7.00839 7.82924 7.15033 7.61095 7.37967 7.38143C7.609 7.15192 7.82721 7.00986 8.13387 6.89127C8.36467 6.80132 8.71224 6.6949 9.35151 6.66585C10.0427 6.63408 10.2503 6.62774 12.0005 6.62774C13.7507 6.62774 13.9585 6.63461 14.6503 6.66585C15.2895 6.69495 15.6364 6.80215 15.8679 6.89127C16.174 7.00986 16.3924 7.15224 16.6221 7.38143C16.8517 7.61063 16.9934 7.82924 17.1125 8.13518C17.2026 8.36585 17.309 8.7132 17.3381 9.35209C17.3699 10.0434 17.3762 10.2503 17.3762 12.0003C17.3762 13.7502 17.3699 13.9571 17.3381 14.6484C17.309 15.2873 17.202 15.6346 17.1125 15.8654C16.9934 16.1713 16.8514 16.3896 16.6221 16.6186C16.3928 16.8476 16.174 16.9896 15.8679 17.1087C15.6371 17.1987 15.2895 17.3051 14.6503 17.3342C13.9591 17.3659 13.7515 17.3723 12.0005 17.3723C10.2495 17.3723 10.0424 17.3659 9.35151 17.3342V17.3342ZM9.29721 5.48695C8.5992 5.51872 8.12222 5.62933 7.70568 5.79132C7.27429 5.95861 6.90909 6.18303 6.54416 6.54717C6.17923 6.9113 5.95525 7.27685 5.78787 7.70798C5.62578 8.12454 5.5151 8.60097 5.48331 9.29857C5.451 9.99727 5.4436 10.2206 5.4436 12.0002C5.4436 13.7798 5.451 14.0032 5.48331 14.7019C5.5151 15.3995 5.62578 15.8759 5.78787 16.2925C5.95525 16.7233 6.17929 17.0893 6.54416 17.4533C6.90904 17.8172 7.27429 18.0414 7.70568 18.2091C8.12301 18.3711 8.5992 18.4817 9.29721 18.5135C9.9967 18.5453 10.2198 18.5532 12.0005 18.5532C13.7811 18.5532 14.0046 18.5458 14.7038 18.5135C15.4018 18.4817 15.8785 18.3711 16.2953 18.2091C16.7264 18.0414 17.0919 17.8174 17.4568 17.4533C17.8217 17.0891 18.0452 16.7233 18.2131 16.2925C18.3752 15.8759 18.4864 15.3995 18.5177 14.7019C18.5494 14.0026 18.5568 13.7798 18.5568 12.0002C18.5568 10.2206 18.5494 9.99727 18.5177 9.29857C18.4859 8.60091 18.3752 8.12428 18.2131 7.70798C18.0452 7.27711 17.8212 6.91188 17.4568 6.54717C17.0925 6.18245 16.7264 5.95861 16.2958 5.79132C15.8785 5.62933 15.4018 5.51819 14.7043 5.48695C14.0052 5.45518 13.7816 5.44727 12.001 5.44727C10.2204 5.44727 9.9967 5.45466 9.29721 5.48695Z" fill="url(#paint0_radial_1_1304)"/>
<path d="M9.81521 12.0002C9.81521 10.7939 10.7934 9.81572 12.0005 9.81572C13.2075 9.81572 14.1863 10.7939 14.1863 12.0002C14.1863 13.2065 13.2075 14.1847 12.0005 14.1847C10.7934 14.1847 9.81521 13.2065 9.81521 12.0002ZM8.63361 12.0002C8.63361 13.8586 10.141 15.3651 12.0005 15.3651C13.86 15.3651 15.3674 13.8586 15.3674 12.0002C15.3674 10.1418 13.86 8.63535 12.0005 8.63535C10.141 8.63535 8.63361 10.1418 8.63361 12.0002ZM14.7138 8.50194C14.7138 8.65746 14.7599 8.80951 14.8463 8.93886C14.9327 9.06821 15.0555 9.16905 15.1993 9.22863C15.343 9.2882 15.5012 9.30384 15.6538 9.27356C15.8065 9.24328 15.9467 9.16844 16.0568 9.05851C16.1669 8.94858 16.2419 8.8085 16.2723 8.65597C16.3027 8.50344 16.2872 8.34533 16.2277 8.20162C16.1682 8.05791 16.0674 7.93505 15.9381 7.8486C15.8087 7.76214 15.6566 7.71596 15.501 7.7159H15.5007C15.2921 7.71599 15.092 7.79883 14.9445 7.94621C14.797 8.09359 14.714 8.29347 14.7138 8.50194V8.50194ZM9.35151 17.3342C8.71224 17.3051 8.36477 17.1986 8.13387 17.1087C7.82774 16.9896 7.60932 16.8478 7.37967 16.6186C7.15002 16.3894 7.00787 16.1713 6.88921 15.8654C6.7992 15.6347 6.69272 15.2873 6.66366 14.6484C6.63187 13.9577 6.62552 13.7502 6.62552 12.0003C6.62552 10.2503 6.63239 10.0434 6.66366 9.35209C6.69277 8.7132 6.80004 8.36653 6.88921 8.13518C7.00839 7.82924 7.15033 7.61095 7.37967 7.38143C7.609 7.15192 7.82721 7.00986 8.13387 6.89127C8.36467 6.80132 8.71224 6.6949 9.35151 6.66585C10.0427 6.63408 10.2503 6.62774 12.0005 6.62774C13.7507 6.62774 13.9585 6.63461 14.6503 6.66585C15.2895 6.69495 15.6364 6.80215 15.8679 6.89127C16.174 7.00986 16.3924 7.15224 16.6221 7.38143C16.8517 7.61063 16.9934 7.82924 17.1125 8.13518C17.2026 8.36585 17.309 8.7132 17.3381 9.35209C17.3699 10.0434 17.3762 10.2503 17.3762 12.0003C17.3762 13.7502 17.3699 13.9571 17.3381 14.6484C17.309 15.2873 17.202 15.6346 17.1125 15.8654C16.9934 16.1713 16.8514 16.3896 16.6221 16.6186C16.3928 16.8476 16.174 16.9896 15.8679 17.1087C15.6371 17.1987 15.2895 17.3051 14.6503 17.3342C13.9591 17.3659 13.7515 17.3723 12.0005 17.3723C10.2495 17.3723 10.0424 17.3659 9.35151 17.3342V17.3342ZM9.29721 5.48695C8.5992 5.51872 8.12222 5.62933 7.70568 5.79132C7.27429 5.95861 6.90909 6.18303 6.54416 6.54717C6.17923 6.9113 5.95525 7.27685 5.78787 7.70798C5.62578 8.12454 5.5151 8.60097 5.48331 9.29857C5.451 9.99727 5.4436 10.2206 5.4436 12.0002C5.4436 13.7798 5.451 14.0032 5.48331 14.7019C5.5151 15.3995 5.62578 15.8759 5.78787 16.2925C5.95525 16.7233 6.17929 17.0893 6.54416 17.4533C6.90904 17.8172 7.27429 18.0414 7.70568 18.2091C8.12301 18.3711 8.5992 18.4817 9.29721 18.5135C9.9967 18.5453 10.2198 18.5532 12.0005 18.5532C13.7811 18.5532 14.0046 18.5458 14.7038 18.5135C15.4018 18.4817 15.8785 18.3711 16.2953 18.2091C16.7264 18.0414 17.0919 17.8174 17.4568 17.4533C17.8217 17.0891 18.0452 16.7233 18.2131 16.2925C18.3752 15.8759 18.4864 15.3995 18.5177 14.7019C18.5494 14.0026 18.5568 13.7798 18.5568 12.0002C18.5568 10.2206 18.5494 9.99727 18.5177 9.29857C18.4859 8.60091 18.3752 8.12428 18.2131 7.70798C18.0452 7.27711 17.8212 6.91188 17.4568 6.54717C17.0925 6.18245 16.7264 5.95861 16.2958 5.79132C15.8785 5.62933 15.4018 5.51819 14.7043 5.48695C14.0052 5.45518 13.7816 5.44727 12.001 5.44727C10.2204 5.44727 9.9967 5.45466 9.29721 5.48695Z" fill="black"/>
<defs>
<radialGradient id="paint0_radial_1_1304" cx="0" cy="0" r="1" gradientUnits="userSpaceOnUse" gradientTransform="translate(7.18585 18.6151) scale(17.1189 17.1087)">
<stop offset="0.09" stop-color="#FA8F21"/>
<stop offset="0.78" stop-color="#D82D7E"/>
</radialGradient>
</defs>
</svg>
