<svg width="25" height="25" viewBox="0 0 25 25" fill="none" xmlns="http://www.w3.org/2000/svg">
<rect x="0.036377" y="0.115234" width="24" height="24" rx="2" fill="white"/>
<path fill-rule="evenodd" clip-rule="evenodd" d="M6.47358 5.50488C5.93848 5.50488 5.50439 5.92575 5.50439 6.44426V17.6796C5.50439 18.1981 5.93853 18.6186 6.47358 18.6186H17.649C18.1843 18.6186 18.6182 18.1981 18.6182 17.6794V6.44426C18.6182 5.92575 18.1843 5.50488 17.649 5.50488H6.47358ZM9.48942 10.5756V16.4794H7.52707V10.5756H9.48942ZM9.61877 8.74972C9.61877 9.31627 9.19283 9.76962 8.50866 9.76962L8.5085 9.76957H8.4958C7.83719 9.76957 7.41141 9.31622 7.41141 8.74967C7.41141 8.17025 7.85005 7.72956 8.52167 7.72956C9.19283 7.72956 9.60596 8.17025 9.61877 8.74972ZM12.5378 16.4794H10.5756L10.5756 16.4796C10.5756 16.4796 10.6013 11.1296 10.5757 10.5758H12.538V11.4114C12.7988 11.0092 13.2657 10.4371 14.3065 10.4371C15.5976 10.4371 16.5655 11.281 16.5655 13.0943V16.4794H14.6034V13.3214C14.6034 12.5276 14.3192 11.9863 13.6094 11.9863C13.0671 11.9863 12.7443 12.3513 12.6025 12.704C12.5506 12.8299 12.5378 13.0066 12.5378 13.1828V16.4794Z" fill="black"/>
</svg>
